<svg width="3123" height="1221" viewBox="0 0 3123 1221" fill="none" xmlns="http://www.w3.org/2000/svg">
<path d="M1902 200.001C1902 89.5436 1991.54 0.000488281 2102 0.000488281H2923C3033.46 0.000488281 3123 89.5435 3123 200V1021C3123 1131.46 3033.46 1221 2923 1221H2102C1991.54 1221 1902 1131.46 1902 1021V200.001Z" fill="url(#paint0_linear_51_22)"/>
<path d="M2614.68 173.954C2574.32 133.366 2506.88 133.065 2480.48 183.85C2455.24 232.399 2441.71 286.789 2441.71 342.583C2441.71 433.442 2477.59 520.579 2541.48 584.826C2605.36 649.072 2692.01 685.166 2782.35 685.166C2838.17 685.166 2892.57 671.389 2941.07 645.708C2991.25 619.136 2990.89 552.306 2950.85 512.042C2910.5 471.454 2841.74 477.193 2784.51 478.112C2783.79 478.123 2783.07 478.129 2782.35 478.129C2746.61 478.129 2712.32 463.848 2687.05 438.428C2661.77 413.009 2647.57 378.532 2647.57 342.583C2647.57 341.346 2647.59 340.112 2647.62 338.879C2649.16 282.118 2654.71 214.218 2614.68 173.954Z" fill="#151F48" fill-opacity="0.9"/>
<path d="M2410.32 1047.05C2450.68 1087.64 2518.12 1087.94 2544.52 1037.15C2569.76 988.602 2583.29 934.212 2583.29 878.418C2583.29 787.559 2547.41 700.422 2483.52 636.175C2419.64 571.929 2332.99 535.835 2242.65 535.835C2186.83 535.835 2132.43 549.612 2083.93 575.293C2033.75 601.865 2034.11 668.695 2074.15 708.959C2114.5 749.547 2183.26 743.808 2240.49 742.889C2241.21 742.878 2241.93 742.872 2242.65 742.872C2278.39 742.872 2312.68 757.153 2337.95 782.573C2363.23 807.992 2377.43 842.469 2377.43 878.418C2377.43 879.655 2377.41 880.89 2377.38 882.122C2375.84 938.883 2370.29 1006.78 2410.32 1047.05Z" fill="#021024" fill-opacity="0.9"/>
<path d="M2614.68 1047.05C2574.32 1087.64 2506.88 1087.94 2480.48 1037.15C2455.24 988.602 2441.71 934.212 2441.71 878.418C2441.71 787.559 2477.59 700.422 2541.48 636.175C2605.36 571.929 2692.01 535.835 2782.35 535.835C2838.17 535.835 2892.57 549.612 2941.07 575.293C2991.25 601.865 2990.89 668.695 2950.85 708.959C2910.5 749.547 2841.74 743.808 2784.51 742.889C2783.79 742.878 2783.07 742.872 2782.35 742.872C2746.61 742.872 2712.32 757.153 2687.05 782.573C2661.77 807.992 2647.57 842.469 2647.57 878.418C2647.57 879.655 2647.59 880.89 2647.62 882.122C2649.16 938.883 2654.71 1006.78 2614.68 1047.05Z" fill="#4861A2" fill-opacity="0.9"/>
<path d="M2410.32 173.954C2450.68 133.366 2518.12 133.065 2544.52 183.85C2569.76 232.399 2583.29 286.789 2583.29 342.583C2583.29 433.442 2547.41 520.579 2483.52 584.826C2419.64 649.072 2332.99 685.166 2242.65 685.166C2186.83 685.166 2132.43 671.389 2083.93 645.708C2033.75 619.136 2034.11 552.306 2074.15 512.042C2114.5 471.454 2183.26 477.193 2240.49 478.112C2241.21 478.123 2241.93 478.129 2242.65 478.129C2278.39 478.129 2312.68 463.848 2337.95 438.428C2363.23 413.009 2377.43 378.532 2377.43 342.583C2377.43 341.346 2377.41 340.112 2377.38 338.879C2375.84 282.118 2370.29 214.218 2410.32 173.954Z" fill="#8FB2EC" fill-opacity="0.9"/>
<path d="M280.816 28.3027H788.323C803.338 28.3027 810.345 35.3097 810.345 50.3247V148.423C810.345 163.438 803.338 171.446 788.323 171.446H286.822C183.719 171.446 153.689 201.476 153.689 307.582V451.726C153.689 557.832 183.719 588.863 286.822 588.863H617.152C652.187 588.863 667.202 572.847 667.202 527.802V446.721C667.202 437.712 664.199 433.708 655.19 433.708H361.897C347.883 433.708 339.875 425.7 339.875 410.685V335.61C339.875 320.595 347.883 312.587 361.897 312.587H779.314C799.334 312.587 809.344 322.597 809.344 342.617V575.85C809.344 687.962 765.3 729.003 685.22 729.003H280.816C78.614 729.003 0.536011 656.931 0.536011 464.739V292.567C0.536011 100.375 78.614 28.3027 280.816 28.3027Z" fill="url(#paint1_linear_51_22)"/>
<path d="M1207.52 28.3027H1516.83C1720.04 28.3027 1797.11 100.375 1797.11 292.567V464.739C1797.11 656.931 1720.04 729.003 1516.83 729.003H1207.52C1005.32 729.003 927.243 656.931 927.243 464.739V292.567C927.243 100.375 1005.32 28.3027 1207.52 28.3027ZM1080.4 303.578V453.728C1080.4 558.833 1110.43 589.864 1213.53 589.864H1510.83C1613.93 589.864 1643.96 558.833 1643.96 453.728V303.578C1643.96 198.473 1613.93 167.442 1510.83 167.442H1213.53C1110.43 167.442 1080.4 198.473 1080.4 303.578Z" fill="url(#paint2_linear_51_22)"/>
<path d="M238.154 854.001H292.154C299.654 854.001 303.154 857.501 303.154 865.001V1064.5C303.154 1117.5 318.154 1133 369.654 1133H572.154C579.654 1133 583.154 1136.5 583.154 1144V1193C583.154 1200.5 579.654 1204 572.154 1204H366.654C265.654 1204 226.654 1168 226.654 1072V865.001C226.654 857.501 230.654 854.001 238.154 854.001Z" fill="url(#paint3_linear_51_22)"/>
<path d="M639.545 854.001H693.545C701.045 854.001 704.545 857.501 704.545 865.001V1193C704.545 1200.5 701.045 1204 693.545 1204H639.545C632.045 1204 628.045 1200.5 628.045 1193V865.001C628.045 857.501 632.045 854.001 639.545 854.001Z" fill="url(#paint4_linear_51_22)"/>
<path d="M853.611 854.001H1118.61C1126.11 854.001 1129.61 857.501 1129.61 865.001V912.501C1129.61 920.001 1126.11 923.501 1118.61 923.501H868.111C849.111 923.501 841.611 934.001 841.611 951.501V968.501C841.611 987.001 850.111 996.501 867.611 996.501H1055.11C1112.61 996.501 1142.61 1027.5 1142.61 1082.5V1122.5C1142.61 1171 1114.61 1204 1054.11 1204H777.111C769.611 1204 765.611 1200.5 765.611 1193V1145.5C765.611 1138 769.611 1134.5 777.111 1134.5H1039.61C1058.61 1134.5 1066.11 1124 1066.11 1106.5V1086C1066.11 1067.5 1057.61 1058 1040.11 1058H852.611C795.111 1058 765.111 1027 765.111 972.001V935.501C765.111 887.001 793.111 854.001 853.611 854.001Z" fill="url(#paint5_linear_51_22)"/>
<path d="M1189.82 854.001H1580.32C1587.82 854.001 1591.82 857.501 1591.82 865.001V914.001C1591.82 921.501 1587.82 925.501 1580.32 925.501H1423.32V1193C1423.32 1200.5 1419.82 1204 1412.32 1204H1357.82C1350.32 1204 1346.82 1200.5 1346.82 1193V925.501H1189.82C1182.32 925.501 1178.32 921.501 1178.32 914.001V865.001C1178.32 857.501 1182.32 854.001 1189.82 854.001Z" fill="url(#paint6_linear_51_22)"/>
<defs>
<linearGradient id="paint0_linear_51_22" x1="2942.3" y1="-171.844" x2="2443.31" y2="1840.46" gradientUnits="userSpaceOnUse">
<stop offset="0.369113" stop-color="#E8F3FF"/>
<stop offset="1" stop-color="#8B9299"/>
</linearGradient>
<linearGradient id="paint1_linear_51_22" x1="1294.5" y1="695.619" x2="1171.15" y2="1446.62" gradientUnits="userSpaceOnUse">
<stop offset="0.411214" stop-color="#E8F3FF"/>
<stop offset="1" stop-color="#8B9299"/>
</linearGradient>
<linearGradient id="paint2_linear_51_22" x1="1294.5" y1="695.619" x2="1171.15" y2="1446.62" gradientUnits="userSpaceOnUse">
<stop offset="0.411214" stop-color="#E8F3FF"/>
<stop offset="1" stop-color="#8B9299"/>
</linearGradient>
<linearGradient id="paint3_linear_51_22" x1="1294.5" y1="695.619" x2="1171.15" y2="1446.62" gradientUnits="userSpaceOnUse">
<stop offset="0.411214" stop-color="#E8F3FF"/>
<stop offset="1" stop-color="#8B9299"/>
</linearGradient>
<linearGradient id="paint4_linear_51_22" x1="1294.5" y1="695.619" x2="1171.15" y2="1446.62" gradientUnits="userSpaceOnUse">
<stop offset="0.411214" stop-color="#E8F3FF"/>
<stop offset="1" stop-color="#8B9299"/>
</linearGradient>
<linearGradient id="paint5_linear_51_22" x1="1294.5" y1="695.619" x2="1171.15" y2="1446.62" gradientUnits="userSpaceOnUse">
<stop offset="0.411214" stop-color="#E8F3FF"/>
<stop offset="1" stop-color="#8B9299"/>
</linearGradient>
<linearGradient id="paint6_linear_51_22" x1="1294.5" y1="695.619" x2="1171.15" y2="1446.62" gradientUnits="userSpaceOnUse">
<stop offset="0.411214" stop-color="#E8F3FF"/>
<stop offset="1" stop-color="#8B9299"/>
</linearGradient>
</defs>
</svg>
