<svg width="1080" height="1080" viewBox="0 0 1080 1080" fill="none" xmlns="http://www.w3.org/2000/svg">
<path d="M0 200C0 89.5431 89.543 0 200 0H880C990.457 0 1080 89.543 1080 200V880C1080 990.457 990.457 1080 880 1080H200C89.5431 1080 0 990.457 0 880V200Z" fill="url(#paint0_linear_28_81)"/>
<path d="M630.377 153.866C594.679 117.965 535.028 117.699 511.675 162.619C489.351 205.561 477.381 253.671 477.381 303.022C477.381 383.388 509.126 460.463 565.632 517.29C622.139 574.118 698.778 606.043 778.69 606.043C828.061 606.043 876.183 593.858 919.079 571.142C963.464 547.639 963.146 488.526 927.733 452.911C892.035 417.011 831.216 422.087 780.594 422.899C779.96 422.91 779.326 422.915 778.69 422.915C747.072 422.915 716.749 410.283 694.392 387.799C672.035 365.315 659.474 334.819 659.474 303.022C659.474 301.928 659.489 300.836 659.519 299.745C660.882 249.539 665.79 189.48 630.377 153.866Z" fill="#151F48" fill-opacity="0.9"/>
<path d="M449.623 926.134C485.321 962.035 544.972 962.301 568.325 917.381C590.649 874.439 602.619 826.329 602.619 776.978C602.619 696.612 570.874 619.537 514.368 562.71C457.861 505.882 381.222 473.957 301.31 473.957C251.939 473.957 203.817 486.142 160.921 508.858C116.536 532.361 116.854 591.474 152.267 627.089C187.965 662.989 248.784 657.913 299.406 657.101C300.04 657.09 300.674 657.085 301.31 657.085C332.928 657.085 363.251 669.717 385.608 692.201C407.965 714.685 420.525 745.181 420.525 776.978C420.525 778.072 420.511 779.164 420.481 780.255C419.118 830.461 414.21 890.52 449.623 926.134Z" fill="#021024" fill-opacity="0.9"/>
<path d="M630.377 926.134C594.679 962.035 535.028 962.301 511.675 917.381C489.351 874.439 477.381 826.329 477.381 776.978C477.381 696.612 509.126 619.537 565.632 562.71C622.139 505.882 698.778 473.957 778.69 473.957C828.061 473.957 876.183 486.142 919.079 508.858C963.464 532.361 963.146 591.474 927.733 627.089C892.035 662.989 831.216 657.913 780.594 657.101C779.96 657.09 779.326 657.085 778.69 657.085C747.072 657.085 716.749 669.717 694.392 692.201C672.035 714.685 659.474 745.181 659.474 776.978C659.474 778.072 659.489 779.164 659.519 780.255C660.882 830.461 665.79 890.52 630.377 926.134Z" fill="#4861A2" fill-opacity="0.9"/>
<path d="M449.623 153.866C485.321 117.965 544.972 117.699 568.325 162.619C590.649 205.561 602.619 253.671 602.619 303.022C602.619 383.388 570.874 460.463 514.368 517.29C457.861 574.118 381.222 606.043 301.31 606.043C251.939 606.043 203.817 593.858 160.921 571.142C116.536 547.639 116.854 488.526 152.267 452.911C187.965 417.011 248.784 422.087 299.406 422.899C300.04 422.91 300.674 422.915 301.31 422.915C332.928 422.915 363.251 410.283 385.608 387.799C407.965 365.315 420.525 334.819 420.525 303.022C420.525 301.928 420.511 300.836 420.481 299.745C419.118 249.539 414.21 189.48 449.623 153.866Z" fill="#8FB2EC" fill-opacity="0.9"/>
<defs>
<linearGradient id="paint0_linear_28_81" x1="1017.5" y1="-152" x2="163" y2="1195.5" gradientUnits="userSpaceOnUse">
<stop offset="0.369113" stop-color="#E8F3FF"/>
<stop offset="1" stop-color="#8B9299"/>
</linearGradient>
</defs>
</svg>
